<?xml version="1.0" standalone="no"?>
<!DOCTYPE svg PUBLIC "-//W3C//DTD SVG 20010904//EN"
 "http://www.w3.org/TR/2001/REC-SVG-20010904/DTD/svg10.dtd">
<svg version="1.0" xmlns="http://www.w3.org/2000/svg"
 width="500.000000pt" height="500.000000pt" viewBox="0 0 500.000000 500.000000"
 preserveAspectRatio="xMidYMid meet">

<g transform="translate(0.000000,500.000000) scale(0.100000,-0.100000)"
fill="#000000" stroke="none">
<path d="M3002 3980 c-62 -77 -115 -147 -118 -155 -5 -12 3 -15 40 -15 30 0
46 -4 46 -12 0 -7 -41 -61 -90 -120 -50 -59 -90 -112 -90 -118 0 -6 28 -10 70
-10 39 0 70 -3 70 -6 0 -3 -41 -61 -91 -130 -50 -68 -88 -128 -84 -134 7 -12
721 -15 728 -2 3 4 -37 66 -89 137 l-95 130 76 3 c41 2 75 5 75 9 0 3 -43 56
-95 119 -52 62 -95 118 -95 124 0 5 20 10 45 10 25 0 45 5 45 10 0 8 -228 301
-234 300 0 0 -52 -63 -114 -140z"/>
<path d="M2278 3838 c-98 -117 -147 -182 -142 -190 3 -4 18 -8 34 -8 16 0 31
-3 33 -7 3 -5 -28 -48 -69 -96 -41 -49 -74 -93 -74 -98 0 -5 25 -9 55 -9 30 0
55 -3 55 -6 0 -5 -104 -151 -143 -201 -7 -10 53 -13 297 -13 l306 0 -79 108
-79 107 59 3 c32 2 59 6 59 10 0 4 -34 48 -75 97 -41 50 -75 93 -75 98 0 4 15
7 34 7 19 0 37 3 40 8 4 6 -134 184 -178 230 -11 11 -21 4 -58 -40z"/>
<path d="M3050 3164 c0 -74 2 -80 52 -168 85 -150 78 -155 78 57 l0 187 -65 0
-65 0 0 -76z"/>
<path d="M2170 3095 c-10 -12 29 -86 225 -427 131 -227 252 -437 269 -465 l31
-53 386 0 c324 0 388 2 398 14 10 12 -35 102 -235 473 -136 252 -252 461 -258
465 -6 4 -189 8 -407 8 -339 0 -398 -2 -409 -15z m806 -366 c47 -94 83 -178
80 -185 -5 -12 -33 -14 -153 -12 l-148 3 -84 166 c-53 104 -82 172 -78 182 6
15 25 17 152 17 l145 0 86 -171z"/>
<path d="M2007 3033 c-79 -126 -490 -847 -491 -861 -1 -14 10 -18 59 -20 l60
-3 196 353 c151 273 200 353 215 353 15 0 63 -80 214 -352 l195 -352 68 -1
c37 0 67 3 67 6 0 4 -118 211 -262 460 -188 324 -268 454 -280 454 -10 0 -28
-17 -41 -37z"/>
<path d="M1883 2438 c-89 -155 -161 -284 -159 -285 2 -2 30 6 62 18 86 32 159
109 218 229 40 83 47 92 53 70 21 -78 115 -217 177 -259 37 -26 127 -63 134
-56 3 3 -304 543 -317 557 -4 4 -79 -119 -168 -274z"/>
<path d="M1661 1988 c0 -13 21 -117 47 -233 l47 -210 29 -3 c16 -2 32 0 37 5
12 12 110 444 103 455 -9 15 -53 8 -62 -9 -5 -10 -22 -84 -38 -165 -15 -81
-30 -145 -32 -143 -3 3 -19 75 -36 162 l-32 158 -32 3 c-28 3 -32 0 -31 -20z"/>
<path d="M2090 2008 c0 -2 -23 -106 -50 -232 -28 -127 -50 -231 -50 -233 0 -2
16 -3 35 -3 28 0 36 4 39 23 17 83 12 77 71 77 50 0 55 -2 60 -25 3 -14 7 -36
10 -50 5 -21 11 -25 40 -25 19 0 35 1 35 3 0 2 -22 106 -50 233 -27 126 -50
230 -50 232 0 1 -20 2 -45 2 -25 0 -45 -1 -45 -2z m69 -206 l18 -102 -44 0
c-38 0 -44 3 -39 18 5 17 36 180 36 190 0 3 2 3 5 0 3 -3 14 -51 24 -106z"/>
<path d="M2355 1998 c-3 -7 -4 -112 -3 -233 l3 -220 33 -3 32 -3 0 130 c0 72
4 131 9 131 5 0 29 -57 54 -127 l45 -128 33 0 34 0 0 230 0 230 -32 3 -33 3 0
-125 c0 -69 -4 -127 -9 -130 -5 -3 -29 52 -54 122 -43 124 -45 127 -76 130
-19 2 -33 -2 -36 -10z"/>
<path d="M2675 1998 c-3 -7 -4 -112 -3 -233 l3 -220 94 0 c134 0 131 -4 131
230 0 231 3 227 -128 233 -72 4 -93 1 -97 -10z m150 -223 l0 -160 -40 0 -40 0
-3 150 c-1 82 0 155 3 163 3 9 18 12 42 10 l38 -3 0 -160z"/>
<path d="M2984 1997 c-2 -7 -3 -111 -2 -232 l3 -220 33 -3 32 -3 0 235 0 236
-30 0 c-17 0 -33 -6 -36 -13z"/>
<path d="M3120 1975 c0 -34 1 -35 40 -35 l40 0 0 -201 0 -200 33 3 32 3 3 198
2 197 41 0 c39 0 40 1 37 33 l-3 32 -112 3 -113 3 0 -36z"/>
<path d="M1677 1373 c19 -4 23 -12 26 -56 l3 -52 2 52 c2 45 5 52 25 56 12 2
0 4 -28 4 -27 0 -40 -2 -28 -4z"/>
<path d="M1791 1323 c1 -32 4 -48 6 -35 5 24 31 29 53 10 8 -7 11 -9 7 -4 -4
5 -2 15 5 23 6 7 8 16 4 20 -3 3 -6 1 -6 -5 0 -7 -13 -12 -30 -12 -25 0 -30 4
-30 24 0 19 6 26 28 29 25 4 25 4 -5 6 l-33 1 1 -57z"/>
<path d="M1957 1373 c-12 -12 -7 -22 8 -17 8 4 15 10 15 15 0 11 -14 12 -23 2z"/>
<path d="M2061 1373 c-1 -6 8 -33 20 -60 l21 -48 13 25 c8 14 14 30 14 35 0 6
-6 -1 -14 -15 l-13 -25 -12 30 c-23 59 -29 70 -29 58z"/>
<path d="M2136 1365 c-9 -26 -7 -32 5 -12 6 10 9 21 6 23 -2 3 -7 -2 -11 -11z"/>
<path d="M2200 1325 l0 -55 38 2 c36 1 36 1 5 5 -43 6 -47 40 -5 46 l27 4 -27
2 c-21 1 -28 6 -28 20 0 15 8 21 33 24 31 4 31 4 -5 5 l-38 2 0 -55z"/>
<path d="M2322 1328 l-2 -58 33 1 c29 2 30 2 5 6 -25 4 -27 9 -31 56 l-3 52
-2 -57z"/>
<path d="M2497 1373 c-17 -16 -5 -42 23 -52 17 -5 30 -14 30 -19 0 -16 -30
-23 -51 -12 -10 6 -19 8 -19 6 0 -15 41 -26 60 -16 28 15 25 28 -10 48 -37 21
-38 39 -2 45 l27 4 -26 2 c-14 0 -29 -2 -32 -6z"/>
<path d="M2612 1323 l1 -58 6 50 6 50 14 -33 c20 -47 29 -48 48 -6 l18 37 6
-49 6 -49 1 58 c1 31 -2 57 -6 57 -5 0 -16 -16 -25 -36 -19 -39 -29 -38 -47 6
-19 46 -30 36 -28 -27z"/>
<path d="M2783 1325 c0 -33 2 -45 4 -27 2 18 2 45 0 60 -2 15 -4 0 -4 -33z"/>
<path d="M2852 1328 l-2 -58 33 1 c29 2 30 2 5 6 -25 4 -27 9 -31 56 l-3 52
-2 -57z"/>
<path d="M2953 1325 c0 -33 2 -45 4 -27 2 18 2 45 0 60 -2 15 -4 0 -4 -33z"/>
<path d="M3022 1323 c1 -50 2 -52 5 -15 2 23 8 42 14 42 5 0 9 -3 9 -7 0 -5
14 -24 30 -43 l29 -35 -1 60 c-1 59 -1 59 -7 15 l-6 -45 -30 42 c-16 24 -33
43 -37 43 -5 0 -7 -26 -6 -57z"/>
<path d="M3177 1362 c-24 -27 -21 -59 8 -78 20 -13 30 -14 48 -6 21 11 21 11
-4 6 -46 -10 -79 47 -44 76 8 7 26 10 40 8 13 -3 22 -1 19 3 -9 16 -50 10 -67
-9z"/>
<path d="M1985 1333 c5 -20 2 -23 -19 -23 -20 0 -24 4 -20 18 3 9 -2 4 -11
-11 -9 -16 -14 -31 -11 -35 3 -3 6 0 6 6 0 19 68 15 79 -5 6 -10 10 -13 10 -8
0 6 -9 26 -20 45 -12 21 -17 26 -14 13z"/>
</g>
</svg>
